<svg width="16" height="16" viewBox="0 0 16 16" fill="none" xmlns="http://www.w3.org/2000/svg">
<path d="M11.7784 13.8333H3.92604C2.34378 13.8333 1.47217 12.9453 1.47217 11.3333V5.33325C1.47217 3.72125 2.34378 2.83325 3.92604 2.83325H11.7784C13.3607 2.83325 14.2323 3.72125 14.2323 5.33325V11.3333C14.2323 12.9453 13.3607 13.8333 11.7784 13.8333ZM3.92604 3.83325C2.89411 3.83325 2.45372 4.28192 2.45372 5.33325V11.3333C2.45372 12.3846 2.89411 12.8333 3.92604 12.8333H11.7784C12.8104 12.8333 13.2508 12.3846 13.2508 11.3333V5.33325C13.2508 4.28192 12.8104 3.83325 11.7784 3.83325H3.92604ZM8.52562 8.78592L11.7398 6.40458C11.959 6.24258 12.0074 5.92926 11.8478 5.70592C11.6888 5.48326 11.3826 5.43258 11.1621 5.59592L7.94778 7.97725C7.89019 8.01992 7.81365 8.01992 7.75607 7.97725L4.54175 5.59592C4.32057 5.43258 4.01508 5.48392 3.85607 5.70592C3.6964 5.92926 3.74485 6.24192 3.96406 6.40458L7.17822 8.78658C7.37977 8.93591 7.61603 9.00992 7.8516 9.00992C8.08717 9.00992 8.32473 8.93525 8.52562 8.78592Z" fill="#161616" fill-opacity="0.8"/>
</svg>
