<svg width="20" height="20" viewBox="0 0 20 20" fill="none" xmlns="http://www.w3.org/2000/svg">
<path d="M15.8333 6.875H14.7917V4.44417C14.7917 2.81167 13.855 1.875 12.2225 1.875H4.44417C2.81167 1.875 1.875 2.81167 1.875 4.44417V14.1667C1.875 14.4192 2.02741 14.6475 2.26074 14.7442C2.33824 14.7767 2.41917 14.7917 2.5 14.7917C2.6625 14.7917 2.82252 14.7284 2.94169 14.6084L4.70256 12.8467H6.87419V14.1667C6.87419 15.6233 7.70919 16.4583 9.16585 16.4583H15.5733L17.0567 17.9417C17.1767 18.0617 17.3359 18.125 17.4984 18.125C17.5792 18.125 17.6599 18.1092 17.7374 18.0775C17.9708 17.9808 18.1234 17.7525 18.1234 17.5V9.16667C18.125 7.71 17.29 6.875 15.8333 6.875ZM4.44417 11.5975C4.27834 11.5975 4.11915 11.6633 4.00248 11.7808L3.125 12.6583V4.4458C3.125 3.4958 3.49417 3.12663 4.44417 3.12663H12.2225C13.1725 3.12663 13.5417 3.49663 13.5417 4.4458V10.2791C13.5417 11.2283 13.1725 11.5983 12.2225 11.5983H4.44417V11.5975ZM16.875 15.9908L16.275 15.3908C16.1575 15.2733 15.9992 15.2075 15.8333 15.2075H9.16667C8.4075 15.2075 8.125 14.925 8.125 14.1659V12.8467H12.2225C13.855 12.8467 14.7917 11.91 14.7917 10.2775V8.125H15.8333C16.5925 8.125 16.875 8.4075 16.875 9.16667V15.9908ZM9.18335 7.5C9.18335 7.96 8.81085 8.33333 8.35002 8.33333C7.89002 8.33333 7.51241 7.96 7.51241 7.5C7.51241 7.04 7.88167 6.66667 8.34167 6.66667H8.35002C8.81002 6.66667 9.18335 7.04 9.18335 7.5ZM11.6833 7.5C11.6833 7.96 11.3108 8.33333 10.85 8.33333C10.39 8.33333 10.0124 7.96 10.0124 7.5C10.0124 7.04 10.3817 6.66667 10.8417 6.66667H10.85C11.31 6.66667 11.6833 7.04 11.6833 7.5ZM6.68335 7.5C6.68335 7.96 6.31085 8.33333 5.85002 8.33333C5.39002 8.33333 5.01241 7.96 5.01241 7.5C5.01241 7.04 5.38167 6.66667 5.84167 6.66667H5.85002C6.31002 6.66667 6.68335 7.04 6.68335 7.5Z" fill="#161616" fill-opacity="0.8"/>
</svg>
