<svg width="16" height="16" viewBox="0 0 16 16" fill="none" xmlns="http://www.w3.org/2000/svg">
<path d="M8.00016 15.1666C4.04816 15.1666 0.833496 11.9519 0.833496 7.99992C0.833496 4.04792 4.04816 0.833252 8.00016 0.833252C11.9522 0.833252 15.1668 4.04792 15.1668 7.99992C15.1668 11.9519 11.9522 15.1666 8.00016 15.1666ZM8.00016 1.83325C4.5995 1.83325 1.8335 4.59925 1.8335 7.99992C1.8335 11.4006 4.5995 14.1666 8.00016 14.1666C11.4008 14.1666 14.1668 11.4006 14.1668 7.99992C14.1668 4.59925 11.4008 1.83325 8.00016 1.83325ZM8.47412 8.90926C8.49012 8.86126 8.58085 8.67929 9.06885 8.35262C9.85551 7.82529 10.2075 7.07188 10.0615 6.23055C9.91352 5.38055 9.22079 4.6826 8.37679 4.53394C7.76012 4.4246 7.13547 4.59054 6.66081 4.98787C6.18147 5.38987 5.9069 5.97984 5.9069 6.60718C5.9069 6.88318 6.1309 7.10718 6.4069 7.10718C6.6829 7.10718 6.9069 6.88318 6.9069 6.60718C6.9069 6.27651 7.05155 5.96532 7.30355 5.75399C7.55421 5.54399 7.87413 5.45798 8.2028 5.51799C8.63347 5.59399 9.00082 5.96529 9.07682 6.40129C9.10549 6.56595 9.19287 7.06591 8.51221 7.52124C7.96087 7.89124 7.64752 8.23058 7.52686 8.59058C7.43886 8.85258 7.58012 9.13588 7.84212 9.22388C7.89479 9.24188 7.94815 9.24992 8.00081 9.24992C8.20881 9.24992 8.40345 9.11793 8.47412 8.90926ZM8.68018 10.9999C8.68018 10.6319 8.38218 10.3333 8.01351 10.3333H8.00684C7.63884 10.3333 7.34342 10.6319 7.34342 10.9999C7.34342 11.3679 7.64551 11.6666 8.01351 11.6666C8.38151 11.6666 8.68018 11.3679 8.68018 10.9999Z" fill="#161616" fill-opacity="0.6"/>
</svg>
