<svg width="24" height="24" viewBox="0 0 24 24" fill="none" xmlns="http://www.w3.org/2000/svg">
<path d="M20.971 8.18283L15.817 3.02877C15.098 2.30877 14.424 2.21373 13.984 2.25973C13.353 2.32673 12.768 2.73069 12.337 3.39669L10.131 6.80563C9.84699 7.24463 9.366 7.5068 8.843 7.5068C6.708 7.5068 4.70099 8.33762 3.19099 9.84762C3.04999 9.98862 2.97099 10.1787 2.97099 10.3777C2.97099 10.5767 3.04999 10.7677 3.19099 10.9077L7.61099 15.3266L2.46999 20.4687C2.17699 20.7617 2.17699 21.2368 2.46999 21.5298C2.61599 21.6758 2.80799 21.7497 2.99999 21.7497C3.19199 21.7497 3.38399 21.6768 3.52999 21.5298L8.671 16.3877L13.091 20.8066C13.237 20.9526 13.429 21.0268 13.621 21.0268C13.813 21.0268 14.005 20.9536 14.151 20.8066C15.66 19.2976 16.492 17.2897 16.492 15.1557C16.492 14.6337 16.754 14.1516 17.193 13.8676L20.603 11.6606C21.269 11.2296 21.673 10.6436 21.74 10.0136C21.786 9.57564 21.69 8.90183 20.971 8.18283ZM19.788 10.4028L16.378 12.6086C15.51 13.1706 14.992 14.1227 14.992 15.1557C14.992 16.6367 14.499 18.0438 13.591 19.1858L4.813 10.4077C5.956 9.49968 7.362 9.0068 8.843 9.0068C9.876 9.0068 10.828 8.48881 11.39 7.62081L13.596 4.21164C13.771 3.94064 13.976 3.76867 14.143 3.75167C14.361 3.73367 14.621 3.95383 14.757 4.08883L19.911 9.24264C20.047 9.37864 20.271 9.63865 20.248 9.85665C20.23 10.0237 20.059 10.2288 19.788 10.4028Z" fill="#161616" fill-opacity="0.8"/>
</svg>
